<svg id="group-2" xmlns="http://www.w3.org/2000/svg" viewBox="717 464 252.656 50"><defs><style>.cls-1{fill:#fff}.cls-2{fill:none;stroke:#232844;stroke-width:5px}</style></defs><path id="path-1" class="cls-1" d="M99.58 34.33a6.182 6.182 0 0 1-2.139-1.65 7.085 7.085 0 0 1-1.291-2.39 9.413 9.413 0 0 1 0-5.621 7.085 7.085 0 0 1 1.29-2.389 6.286 6.286 0 0 1 2.14-1.66 7.472 7.472 0 0 1 5.961 0 6.286 6.286 0 0 1 2.139 1.661 7.085 7.085 0 0 1 1.291 2.389 9.394 9.394 0 0 1 0 5.621 7.085 7.085 0 0 1-1.291 2.389 6.182 6.182 0 0 1-2.139 1.65 7.583 7.583 0 0 1-5.961 0zm.741-12.219a4.475 4.475 0 0 0-1.54 1.35 5.764 5.764 0 0 0-.88 1.89 8.243 8.243 0 0 0 0 4.26 5.764 5.764 0 0 0 .88 1.89 4.493 4.493 0 0 0 1.54 1.35 5.17 5.17 0 0 0 4.479 0 4.5 4.5 0 0 0 1.541-1.35 5.78 5.78 0 0 0 .879-1.89 8.243 8.243 0 0 0 0-4.26 5.78 5.78 0 0 0-.879-1.89 4.486 4.486 0 0 0-1.541-1.35 5.17 5.17 0 0 0-4.479 0zM68.42 34.37a5.7 5.7 0 0 1-2.06-1.57 6.727 6.727 0 0 1-1.229-2.36 10.058 10.058 0 0 1-.41-2.92 9.526 9.526 0 0 1 .44-2.93 7.062 7.062 0 0 1 1.289-2.39 6.011 6.011 0 0 1 2.12-1.61 6.833 6.833 0 0 1 2.91-.59 7.319 7.319 0 0 1 2.12.3 5.706 5.706 0 0 1 1.78.879 4.96 4.96 0 0 1 1.3 1.45 5.327 5.327 0 0 1 .68 2.011h-1.9a3.535 3.535 0 0 0-1.41-2.28 4.415 4.415 0 0 0-2.59-.76 4.644 4.644 0 0 0-2.19.48 4.329 4.329 0 0 0-1.5 1.291 5.58 5.58 0 0 0-.87 1.85 8.294 8.294 0 0 0-.28 2.16 9.274 9.274 0 0 0 .28 2.31 5.539 5.539 0 0 0 .87 1.9 4.287 4.287 0 0 0 1.51 1.29 4.693 4.693 0 0 0 2.2.481 4.234 4.234 0 0 0 1.67-.311 3.777 3.777 0 0 0 1.26-.86 3.97 3.97 0 0 0 .83-1.31 5.441 5.441 0 0 0 .36-1.64h1.9a6.485 6.485 0 0 1-1.86 4.2 6.017 6.017 0 0 1-4.32 1.5 6.889 6.889 0 0 1-2.9-.571zm-49.6-.041a6.185 6.185 0 0 1-2.14-1.65 7.083 7.083 0 0 1-1.29-2.389 9.394 9.394 0 0 1 0-5.621 7.083 7.083 0 0 1 1.29-2.389 6.289 6.289 0 0 1 2.14-1.661A6.764 6.764 0 0 1 21.8 20a6.764 6.764 0 0 1 2.98.62 6.289 6.289 0 0 1 2.14 1.661 7.067 7.067 0 0 1 1.29 2.389 9.394 9.394 0 0 1 0 5.621 7.067 7.067 0 0 1-1.29 2.389 6.185 6.185 0 0 1-2.14 1.65 6.853 6.853 0 0 1-2.98.61 6.853 6.853 0 0 1-2.98-.61zm.74-12.219a4.491 4.491 0 0 0-1.54 1.35 5.8 5.8 0 0 0-.88 1.89 8.243 8.243 0 0 0 0 4.26 5.8 5.8 0 0 0 .88 1.89 4.51 4.51 0 0 0 1.54 1.35 4.632 4.632 0 0 0 2.24.51 4.63 4.63 0 0 0 2.24-.51 4.5 4.5 0 0 0 1.54-1.35 5.763 5.763 0 0 0 .88-1.89 8.243 8.243 0 0 0 0-4.26 5.763 5.763 0 0 0-.88-1.89 4.483 4.483 0 0 0-1.54-1.35 4.63 4.63 0 0 0-2.24-.51 4.632 4.632 0 0 0-2.24.51zM4.32 34.37a5.694 5.694 0 0 1-2.06-1.57 6.744 6.744 0 0 1-1.23-2.36 10.089 10.089 0 0 1-.41-2.92 9.527 9.527 0 0 1 .44-2.93 7.047 7.047 0 0 1 1.29-2.39 6.011 6.011 0 0 1 2.12-1.61A6.83 6.83 0 0 1 7.38 20a7.319 7.319 0 0 1 2.12.3 5.7 5.7 0 0 1 1.779.879 4.951 4.951 0 0 1 1.3 1.45 5.311 5.311 0 0 1 .68 2.011h-1.9a3.535 3.535 0 0 0-1.409-2.28 4.415 4.415 0 0 0-2.59-.76 4.65 4.65 0 0 0-2.191.48 4.326 4.326 0 0 0-1.5 1.291 5.58 5.58 0 0 0-.87 1.85 8.294 8.294 0 0 0-.28 2.16 9.275 9.275 0 0 0 .28 2.31 5.539 5.539 0 0 0 .87 1.9 4.287 4.287 0 0 0 1.51 1.29 4.693 4.693 0 0 0 2.2.481 4.237 4.237 0 0 0 1.67-.311 3.786 3.786 0 0 0 1.26-.86 3.97 3.97 0 0 0 .83-1.31 5.468 5.468 0 0 0 .36-1.64h1.9a6.489 6.489 0 0 1-1.86 4.2 6.017 6.017 0 0 1-4.32 1.5 6.889 6.889 0 0 1-2.899-.571zm116.68.25l-7.46-11.46h-.04v11.46h-1.8V20.34h2.021l7.52 11.58h.04V20.34h1.8v14.28zm-29.579 0V20.34h1.9v14.28zm-8.321 0V21.94h-4.76v-1.6h11.42v1.6H85v12.68zm-29.9 0V20.34h9.86v1.6H55.1v4.54h7.42v1.6H55.1v4.94h8.02v1.6zm-11.119 0V20.34h1.9v12.68h7.56v1.6zm-11.12 0V20.34h1.9v12.68h7.56v1.6zm152.4-19.967a6.334 6.334 0 0 1-2.156-1 4.956 4.956 0 0 1-1.485-1.738 5.2 5.2 0 0 1-.528-2.508h3.344a2.877 2.877 0 0 0 .286 1.342 2.494 2.494 0 0 0 .759.891 3.271 3.271 0 0 0 1.111.506 5.212 5.212 0 0 0 1.319.166 6.89 6.89 0 0 0 .99-.077 3.442 3.442 0 0 0 .99-.3 2.164 2.164 0 0 0 .77-.6 1.519 1.519 0 0 0 .308-.979 1.381 1.381 0 0 0-.407-1.034 3.245 3.245 0 0 0-1.067-.66 10.531 10.531 0 0 0-1.5-.462q-.836-.2-1.694-.44a15.084 15.084 0 0 1-1.716-.539 5.888 5.888 0 0 1-1.5-.825 3.893 3.893 0 0 1-1.067-1.264 3.849 3.849 0 0 1-.407-1.837 4.113 4.113 0 0 1 .518-2.1A4.687 4.687 0 0 1 181.592-.3a5.9 5.9 0 0 1 1.892-.88 8.044 8.044 0 0 1 2.112-.285 9.988 9.988 0 0 1 2.365.275 5.909 5.909 0 0 1 2.012.891 4.5 4.5 0 0 1 1.4 1.573 4.823 4.823 0 0 1 .518 2.321h-3.344a2.761 2.761 0 0 0-.3-1.166 1.94 1.94 0 0 0-.671-.725 2.821 2.821 0 0 0-.958-.374 5.919 5.919 0 0 0-1.176-.11 3.993 3.993 0 0 0-.836.088 2.235 2.235 0 0 0-.76.308 1.91 1.91 0 0 0-.561.55 1.476 1.476 0 0 0-.22.836 1.415 1.415 0 0 0 .176.748 1.578 1.578 0 0 0 .693.528 8.875 8.875 0 0 0 1.43.483q.913.243 2.387.616.44.088 1.221.319a5.83 5.83 0 0 1 1.551.737 4.678 4.678 0 0 1 1.331 1.353 3.849 3.849 0 0 1 .562 2.167 4.8 4.8 0 0 1-.418 2 4.356 4.356 0 0 1-1.243 1.595 5.979 5.979 0 0 1-2.046 1.045 9.677 9.677 0 0 1-2.827.374 9.932 9.932 0 0 1-2.519-.314zm-29.942-.308a6.95 6.95 0 0 1-2.431-1.727 7.635 7.635 0 0 1-1.518-2.585 9.492 9.492 0 0 1-.528-3.2 9.815 9.815 0 0 1 .528-3.267 7.837 7.837 0 0 1 1.52-2.63 6.94 6.94 0 0 1 2.431-1.76 8.433 8.433 0 0 1 5.7-.264A6.646 6.646 0 0 1 161.187 0a5.9 5.9 0 0 1 1.507 1.771 6.326 6.326 0 0 1 .748 2.42H160.1a2.831 2.831 0 0 0-.4-1.089 3.471 3.471 0 0 0-.77-.869 3.551 3.551 0 0 0-1.045-.583 3.609 3.609 0 0 0-1.221-.209 4.035 4.035 0 0 0-1.98.451 3.733 3.733 0 0 0-1.319 1.21 5.3 5.3 0 0 0-.737 1.727 8.6 8.6 0 0 0-.231 2 8.007 8.007 0 0 0 .231 1.925 5.193 5.193 0 0 0 .737 1.683 3.768 3.768 0 0 0 1.319 1.2 4.035 4.035 0 0 0 1.98.451 3.2 3.2 0 0 0 2.475-.968 4.472 4.472 0 0 0 1.091-2.55h3.344a7.978 7.978 0 0 1-.682 2.662 6.369 6.369 0 0 1-1.452 2.024 6.18 6.18 0 0 1-2.112 1.276 7.735 7.735 0 0 1-2.662.44 8.059 8.059 0 0 1-3.245-.627zm-34.3-.913a6 6 0 0 1-1.749-4.752v-9.768h3.453V8.68a7.085 7.085 0 0 0 .111 1.255 2.436 2.436 0 0 0 1.441 1.858 3.975 3.975 0 0 0 1.683.3 3.234 3.234 0 0 0 2.551-.824 3.929 3.929 0 0 0 .7-2.586v-9.771h3.454V8.68a5.954 5.954 0 0 1-1.782 4.741 8.643 8.643 0 0 1-9.867.011zm-15 .913a6.95 6.95 0 0 1-2.431-1.727 7.635 7.635 0 0 1-1.518-2.585 9.492 9.492 0 0 1-.528-3.2 9.815 9.815 0 0 1 .528-3.267 7.838 7.838 0 0 1 1.518-2.63 6.94 6.94 0 0 1 2.431-1.76 8.609 8.609 0 0 1 6.5 0 6.972 6.972 0 0 1 2.42 1.76 7.853 7.853 0 0 1 1.518 2.629 9.815 9.815 0 0 1 .527 3.267 9.492 9.492 0 0 1-.527 3.2 7.65 7.65 0 0 1-1.518 2.585 6.982 6.982 0 0 1-2.42 1.727 8.734 8.734 0 0 1-6.5 0zm1.265-12.452a3.733 3.733 0 0 0-1.319 1.21 5.3 5.3 0 0 0-.737 1.727 8.6 8.6 0 0 0-.231 2 8.006 8.006 0 0 0 .231 1.925 5.193 5.193 0 0 0 .737 1.683 3.768 3.768 0 0 0 1.319 1.2 4.573 4.573 0 0 0 3.96 0 3.779 3.779 0 0 0 1.32-1.2 5.193 5.193 0 0 0 .737-1.683 8.006 8.006 0 0 0 .231-1.925 8.6 8.6 0 0 0-.231-2 5.3 5.3 0 0 0-.737-1.727 3.743 3.743 0 0 0-1.32-1.21 4.573 4.573 0 0 0-3.96 0zm-16.159 12.76a6.334 6.334 0 0 1-2.156-1 4.956 4.956 0 0 1-1.485-1.738 5.184 5.184 0 0 1-.527-2.508H88.4a2.877 2.877 0 0 0 .286 1.342 2.494 2.494 0 0 0 .759.891 3.279 3.279 0 0 0 1.112.506 5.212 5.212 0 0 0 1.319.166 6.88 6.88 0 0 0 .99-.077 3.433 3.433 0 0 0 .99-.3 2.156 2.156 0 0 0 .77-.6 1.519 1.519 0 0 0 .308-.979 1.381 1.381 0 0 0-.407-1.034 3.235 3.235 0 0 0-1.067-.66 10.494 10.494 0 0 0-1.5-.462q-.836-.2-1.694-.44a15.141 15.141 0 0 1-1.716-.539 5.888 5.888 0 0 1-1.5-.825 3.879 3.879 0 0 1-1.066-1.264 3.838 3.838 0 0 1-.408-1.837 4.113 4.113 0 0 1 .518-2.1A4.687 4.687 0 0 1 87.454-.3a5.9 5.9 0 0 1 1.892-.88 8.049 8.049 0 0 1 2.112-.285 9.977 9.977 0 0 1 2.365.275 5.9 5.9 0 0 1 2.013.89 4.506 4.506 0 0 1 1.4 1.573A4.823 4.823 0 0 1 97.75 3.6h-3.344a2.788 2.788 0 0 0-.3-1.166 1.942 1.942 0 0 0-.671-.725 2.823 2.823 0 0 0-.957-.374 5.935 5.935 0 0 0-1.177-.11 4 4 0 0 0-.836.088 2.223 2.223 0 0 0-.759.308 1.9 1.9 0 0 0-.562.55 1.476 1.476 0 0 0-.22.836 1.415 1.415 0 0 0 .175.748 1.578 1.578 0 0 0 .693.528 8.875 8.875 0 0 0 1.43.483q.914.243 2.388.616c.292.059.7.165 1.22.319a5.849 5.849 0 0 1 1.552.737 4.687 4.687 0 0 1 1.33 1.353 3.849 3.849 0 0 1 .562 2.167 4.8 4.8 0 0 1-.419 2 4.346 4.346 0 0 1-1.243 1.595 5.979 5.979 0 0 1-2.041 1.047 9.677 9.677 0 0 1-2.827.374 9.932 9.932 0 0 1-2.519-.321zm76.7-.033V-1.088h11.749v2.9h-8.294v3.37h7.612v2.684h-7.612v3.85h8.47v2.9zm-22.109 0a6.088 6.088 0 0 1-.352-1.782q-.066-1.033-.2-1.98a3.129 3.129 0 0 0-.748-1.8 2.571 2.571 0 0 0-1.87-.572H137.2v6.134h-3.454V-1.088h8.47a5.051 5.051 0 0 1 1.9.341 4.387 4.387 0 0 1 1.452.935 4.067 4.067 0 0 1 .924 1.375 4.412 4.412 0 0 1 .319 1.683 4.722 4.722 0 0 1-.583 2.4 3.656 3.656 0 0 1-1.9 1.54v.044a2.651 2.651 0 0 1 1.056.539 2.983 2.983 0 0 1 .682.858 4 4 0 0 1 .385 1.089 9.28 9.28 0 0 1 .165 1.188q.023.374.044.88t.077 1.034a6.915 6.915 0 0 0 .175 1 2.3 2.3 0 0 0 .364.8zm-6.622-8.6h3.784a2.613 2.613 0 0 0 1.782-.528 2.192 2.192 0 0 0 .594-1.716 2.093 2.093 0 0 0-.594-1.661 2.651 2.651 0 0 0-1.78-.515h-3.78zm-65.404 8.6V-1.088h11.748v2.9h-8.294v3.37h7.612v2.684h-7.612v3.85h8.471v2.9zm-5.809 0a6.088 6.088 0 0 1-.352-1.782q-.066-1.033-.2-1.98a3.117 3.117 0 0 0-.748-1.8 2.57 2.57 0 0 0-1.87-.572H59.36v6.134h-3.454V-1.088h8.47a5.046 5.046 0 0 1 1.9.341 4.382 4.382 0 0 1 1.453.935 4.052 4.052 0 0 1 .923 1.375 4.395 4.395 0 0 1 .32 1.683 4.722 4.722 0 0 1-.583 2.4 3.663 3.663 0 0 1-1.9 1.54v.044a2.663 2.663 0 0 1 1.056.539 3 3 0 0 1 .682.858 4 4 0 0 1 .384 1.089 9.448 9.448 0 0 1 .166 1.188q.022.374.044.88t.076 1.034a6.913 6.913 0 0 0 .176 1 2.3 2.3 0 0 0 .363.8zm-6.621-8.6h3.784a2.613 2.613 0 0 0 1.782-.528 2.192 2.192 0 0 0 .594-1.716 2.093 2.093 0 0 0-.594-1.661 2.651 2.651 0 0 0-1.782-.515H59.36zm-25.06 8.6V-1.088h7.393a9.758 9.758 0 0 1 2.046.2 4.428 4.428 0 0 1 1.584.649 3.019 3.019 0 0 1 1.023 1.2 4.217 4.217 0 0 1 .363 1.849 3.443 3.443 0 0 1-.539 1.98 3.92 3.92 0 0 1-1.595 1.3 3.777 3.777 0 0 1 2.167 1.463 4.355 4.355 0 0 1 .715 2.518A4.328 4.328 0 0 1 47 12.123a4.014 4.014 0 0 1-1.243 1.419 5.505 5.505 0 0 1-1.782.814 8.021 8.021 0 0 1-2.057.264zm3.454-2.684h3.7a4.563 4.563 0 0 0 .967-.1 2.37 2.37 0 0 0 .814-.329 1.669 1.669 0 0 0 .561-.627A2.157 2.157 0 0 0 44 9.868a2.03 2.03 0 0 0-.681-1.726 2.914 2.914 0 0 0-1.8-.517h-3.763zm0-6.665h3.5a2.482 2.482 0 0 0 1.517-.44 1.663 1.663 0 0 0 .594-1.43 1.819 1.819 0 0 0-.2-.9 1.464 1.464 0 0 0-.527-.551 2.243 2.243 0 0 0-.76-.275 5.027 5.027 0 0 0-.888-.075h-3.234zM20.046 14.62V-1.088h11.748v2.9H23.5v3.37h7.612v2.684H23.5v3.85h8.47v2.9zm-9.239 0L8.144 3.928H8.1L5.482 14.62h-3.5L-2.174-1.088H1.28L3.766 9.6h.044L6.538-1.088h3.234l2.684 10.824h.044l2.574-10.824h3.388L14.238 14.62z" transform="translate(777.24 473.38)"/><g id="group-1"><circle id="ellipse-1" class="cls-1" cx="25" cy="25" r="25" transform="translate(717 464)"/><path id="path-4" class="cls-2" d="M751.736 498.994v-18.217h-20.679v18.217" transform="translate(1 .492)"/><path id="path-5" class="cls-2" d="M741.4 480.777v19.145" transform="translate(1 -.598)"/></g></svg>